<?xml version="1.0" encoding="UTF-8"?>
<svg xmlns="http://www.w3.org/2000/svg" xmlns:xlink="http://www.w3.org/1999/xlink" width="100pt" height="100pt" viewBox="0 0 100 100" version="1.1">
<g id="surface1">
<path style=" stroke:none;fill-rule:nonzero;fill:#FAFAD2;fill-opacity:1;" d="M 97.8125 0 C 97.546875 0.03125 97.296875 0.117188 97.0625 0.25 L 1.0625 52.25 C 0.367188 52.625 -0.0390625 53.375 0.0234375 54.164063 C 0.09375 54.953125 0.625 55.625 1.375 55.875 L 28.625 64.8125 L 26 91.8125 C 25.890625 92.6875 26.375 93.53125 27.1875 93.882813 C 28 94.234375 28.945313 94 29.5 93.3125 L 46.6875 73.875 L 72.625 99.4375 C 73.132813 99.9375 73.867188 100.125 74.554688 99.929688 C 75.242188 99.734375 75.765625 99.195313 75.9375 98.5 L 99.9375 2.5 C 100.117188 1.867188 99.960938 1.1875 99.539063 0.6875 C 99.109375 0.1875 98.46875 -0.0703125 97.8125 0 Z M 94.9375 5.875 L 72.875 94.125 L 49.1875 70.75 L 83.625 23.1875 C 84.382813 22.390625 84.359375 21.132813 83.5625 20.375 C 82.765625 19.617188 81.507813 19.640625 80.75 20.4375 L 30.4375 61.1875 L 7 53.5625 Z M 71.5625 33 L 45.3125 69.4375 C 45.242188 69.515625 45.179688 69.601563 45.125 69.6875 L 45 69.8125 C 44.953125 69.875 44.914063 69.9375 44.875 70 L 30.5625 86.0625 L 32.6875 64.4375 Z "/>
</g>
</svg>
